<?xml version="1.0" encoding="UTF-8"?><svg id="a" xmlns="http://www.w3.org/2000/svg" viewBox="0 0 731.62 173.55"><path d="M404.33,30.12c-1.23,1.59-2.41,3.67-3.67,3.72-8.63.3-17.27.3-25.89.02-1.22-.04-3.34-2.15-3.39-3.37.7-5.82-2.99-27.33,2.96-28.83,34.45.11,30.05-7.28,29.98,28.46Z" style="stroke-width:0px;"/><path d="M306.46,1.15c-.12.18-.31.17-.77.05.06-.15.38-.2.77-.05Z" style="stroke-width:0px;"/><path d="M567.05,172.85c9.66-.26,19.66-.28,30.12-.26-9.76,1.58-19.93.86-30.12.26Z" style="stroke-width:0px;"/><path d="M65.72,129.61c-.63-17.11,0-33.94-.06-50.42.04-3.45-1.16-4.76-4.63-4.68-7.5.17-15.01.36-22.49-.03-4.86-.25-5.85,1.71-5.78,6.09-2.32,58.23,12.63,48.34-32.04,49C-.34,101.18-.06,72.82.49,44.63c54.04-.7,107.62.65,161.18-.61,3.82,27.24,1.35,57.94,1.33,85.13-45.05.4-30.1,9.07-32.36-49.04.08-4.48-1.44-5.79-5.74-5.62-38.51.7-24.45-7.56-26.95,48.11q0,6.98-6.75,6.99c-8.49.01-16.97.01-25.46.01Z" style="stroke-width:0px;"/><path d="M306.53,1.34c-.21,12.39.05,24.57-.02,36.5q0,6.39,6.61,6.44c15.48-.07,30.97.25,46.45.52-.37,28.4-.08,56.65-.17,84.68-27.4.12-54.65.07-81.69.28-4.01.03-4.12-2.14-4.12-5.08.04-39.3.08-78.6-.05-117.89-.01-4.25,1.5-5.35,5.51-5.3,8.63.11,17.27-.26,25.91-.43.03.16,1.6.31,1.56.28Z" style="stroke-width:0px;"/><path d="M566.71,172.62c-4.18-63.91,13.34-35.65-53.91-44.45.02-27.84-.03-55.22-.07-82.59,1.13-.54,2.26-1.52,3.4-1.53,9.89.3,19.89-.88,29.65.63,0,11.6,0,23.06,0,34.52,1.37,5.48-3.85,20.83,5.01,19.81,4.89-1.41,15.47,3.4,15.11-4.66-.12-14.66.15-29.32-.16-43.97-.1-4.98,1.21-6.81,6.39-6.5,7.47.45,14.99.2,22.48.16,2.54-.01,4.08.61,4.08,3.6-1.16,41.27,2.07,84.15-1.24,124.63-10.73.3-20.73.33-30.73.36Z" style="stroke-width:0px;"/><path d="M612.74,129.97c-2.17-26.41-.11-53.26-.98-79.82-.04-4.84,1.46-6.28,6.25-6.24,26.6,1.61,54.38-2.72,80.35,1.88.12,23.24.05,45.71.17,68.19,0,1.51,1.42,3.01,2.17,4.52,9.83.19,19.66.37,29.9,1.06.52,3.45.64,6.4.76,9.34-.92.72-2.56.95-3.45,1.03-38.39-.09-76.78-.38-115.17.04M662.54,101.91v-38.22c-27.29,27.98-29.58,17.68-1.15,45.61.38-.21.76-.43,1.14-.64,0-1.94,0-3.88,0-6.75Z" style="stroke-width:0px;"/><path d="M416.96,129.4c.01-40.48.12-80.96-.07-121.44-.02-5.03,1.24-6.54,6.37-6.48,26.61.3,52.56.14,79.27.17-19.06,20.95-38.39,40.02-58.07,60.16-2.94,2.96-3.04,4.5-.08,7.49,18.16,18.34,36.13,36.85,54.01,55.46,1.06,1.1,4.98,1.98,1.22,5.04-27.96-.37-55.32,1.1-82.65-.4Z" style="stroke-width:0px;"/><path d="M176.72,130.08c-.18-.1-.35-.2-.83-.86-.32-26.86-.29-53.16-.4-79.46-.02-3.63.76-5.44,4.94-5.41,25.13.17,50.26.16,75.39.07,3.6-.01,4.97,1.08,4.95,4.85-.14,26.8-.1,53.59-.49,80.42-27.72.38-55.52-.26-83.56.4M205.61,92.95c-2.11,11.25,14.36,4.58,20.78,6.41,7.76,1.13,2.85-15.87,4.3-20.91,1.13-7.34-16.88-3.24-21.63-3.95-6.21,2.7-2.57,12.13-3.45,18.44Z" style="stroke-width:0px;"/><path d="M375.16,44c8.28,0,16.11.16,23.94-.03,3.77-.09,5.35,1,5.33,5.06-.14,25.32-.12,50.65-.03,75.97.01,3.26-.85,5-4.43,4.96-9.3-.1-18.6-.03-28.45-.03-.67-26.82-.11-53.45-.28-80.26,0-2.5-.89-5.75,3.92-5.68Z" style="stroke-width:0px;"/><path d="M260.66,129.65c.02-26.8-.02-53.59.12-80.39.02-3.77-1.35-4.86-4.95-4.85-25.13.09-50.26.1-75.39-.07-4.18-.03-4.95,1.78-4.94,5.41.11,26.3.09,52.59.12,79.35-5.42-25.64.47-53.72-2.61-80.06-.59-12.87,19.16-4.88,26.99-6.49,18.66.12,37.33.2,55.98-.05,4.93-.07,6.65,1.99,6.65,6.42-1.37,26.84,2.83,54.99-1.74,81.16-.26.03-.22-.45-.22-.45Z" style="stroke-width:0px;"/><path d="M304.63.77c-8.29.47-16.93.84-25.56.73-4.02-.05-5.53,1.05-5.51,5.3.13,39.3.09,78.6.05,117.89,0,2.94.1,5.11,4.12,5.08,26.97-.19,53.94-.19,81.37-.33-27.5,6.11-57.21-.61-85.59,2.97-4.85-41.57-.39-85.16-1.7-127.35.01-1.76,2.07-4.99,3.23-5.02,9.75-.19,19.5.2,29.6.72Z" style="stroke-width:0px;"/><path d="M65.86,129.96c8.34-.36,16.83-.36,25.32-.37q6.74,0,6.75-6.99c2.51-55.61-11.58-47.42,26.95-48.11,4.31-.17,5.82,1.13,5.75,5.61,2.26,58.48-12.69,49.14,32.4,49.18-7.51,4.83-18.54,1.4-27.23,2.28-6.81-.1-7.58-1.7-7.38-8.52.41-13.81.21-27.63.21-41.45,0-3.22-1.75-4.95-4.98-4.97-5.64.96-21.68-3.02-23.2,3.6-.42,15.12-.63,30.25-.65,45.38,0,3.31-.49,5.84-4.23,5.9-9.15.13-18.31.04-27.47-.06-.7,0-1.39-.74-2.23-1.49Z" style="stroke-width:0px;"/><path d="M.86,129.93c44.47-1.74,29.58,9.65,31.9-49.36-.07-4.38.92-6.34,5.78-6.09,7.48.38,15,.2,22.49.03,3.47-.08,4.67,1.23,4.63,4.68-.17,16.16-.15,32.33-.31,48.95-4.48-15.42.33-32.88-2.38-48.82-2.42-5.27-18.64-1.74-24.27-2.69-3.01,0-4.06,1.74-4.04,4.5.08,14.82,0,29.65.34,44.46.07,3.11-.59,5.33-3.51,5.4-9.94.25-19.89.06-29.83,0-.22,0-.44-.46-.8-1.06Z" style="stroke-width:0px;"/><path d="M161.63,43.75c-53.26,1.92-106.69.11-160.49.7,48.63-4.96,99.22-.28,148.46-1.87,4.06.44,8.65-1.9,12.03,1.17Z" style="stroke-width:0px;"/><path d="M612.92,130.28c39.21-1.78,79.12,1.09,118.2-1.11.02,3.01-2.72,2.53-4.93,2.44-37.68-1.07-75.88,2.17-113.27-1.33Z" style="stroke-width:0px;"/><path d="M512.73,128.64c63.07,7.22,52.26-19.01,53.35,43.29-5.01-8.22-1.52-25.18-2.35-35.27.08-3.97-1.42-5.19-5.25-5.15-11.21-1.04-38.85,2.98-46.49-2.51.39-.38.57-.38.75-.37Z" style="stroke-width:0px;"/><path d="M421.5,130.02c25.79-.06,51.58-.13,77.84-.11-.34.62-1.15,1.62-1.96,1.63-11.99.1-23.99.07-35.98.07-13.49,0-26.99.05-40.48-.08-1.45-.01-2.89-1.04-4.15-1.87,1.22-.19,3.11.12,4.46.47l.27-.12Z" style="stroke-width:0px;"/><path d="M260.28,129.68c.37-.03.33.45.32.69-25.13,3.1-50.71.38-76.5.95-.43-.65-.41-1.02-.39-1.39,25.56-.1,50.99-.1,76.56-.25Z" style="stroke-width:0px;"/><path d="M359.43,44.43c-15.31.29-30.92-.26-46.31-.14q-6.62-.03-6.61-6.44c-.01-11.83-.04-23.66-.09-35.99,2.71,10.99.84,23.23,1.17,34.56-.13,4.85,1.74,6.35,6.43,6.27,15.02.85,30.96-2.51,45.42,1.74Z" style="stroke-width:0px;"/><path d="M359.79,129.38c-.39-27.84-.4-55.8-.38-84.21,4.77,5.5.17,30.32,1.33,39.47.02,13.07.64,26.14.84,39.21.03,1.8-.91,3.61-1.78,5.53Z" style="stroke-width:0px;"/><path d="M163.74,128.33c-.32-27.02-.38-54.37-.39-82.17.73.73,2.01,1.93,2,3.12-.79,26.35.82,52.81-1.61,79.05Z" style="stroke-width:0px;"/><path d="M512.8,128.18c-.24.46-.42.46-.87.45.41-27.53-1.67-55.37.55-82.7.29,27.04.34,54.41.32,82.25Z" style="stroke-width:0px;"/><path d="M700.6,118.09c-.66-1.11-2.07-2.61-2.08-4.12-.12-22.47-.05-44.95.04-67.88,3.4,23.67-1,48.16,2.03,72Z" style="stroke-width:0px;"/><path d="M731.62,128.55c-.39-2.6-.51-5.54-.61-8.89.3,2.58.59,5.56.61,8.89Z" style="stroke-width:0px;"/><path d="M183.31,129.84c.38.47.36.84.32,1.48-1.06.28-2.11.27-3.56,0-.43-.63-.45-1-.47-1.36,1.1-.07,2.2-.15,3.71-.12Z" style="stroke-width:0px;"/><path d="M179.24,129.89c.38.43.4.79.44,1.43-.88-.06-1.79-.39-2.82-.98.59-.35,1.31-.43,2.39-.45Z" style="stroke-width:0px;"/><path d="M421.32,129.96c.18.06-.09.18-.09.18-.38,0-.54-.25.09-.18Z" style="stroke-width:0px;"/><path d="M205.62,92.47c.88-5.87-2.76-15.23,3.45-17.96,4.76.71,22.73-3.4,21.63,3.94-1.45,5.06,3.46,22.02-4.3,20.91-6.74-1.87-22.98,5.05-20.78-6.89M228.61,94.71c-.8-17.17,5.04-18.89-15-18.15-4.6-.32-6.03,1.66-6.04,6.13-.04,15.05-.17,15.12,14.83,14.86,2.03-.04,4.05-1.27,6.21-2.83Z" style="stroke-width:0px;"/></svg>